<svg xmlns="http://www.w3.org/2000/svg" viewBox="0 0 660 200" width="660" height="200" role="img" aria-label="AUZsScan"><title>AUZsScan</title><svg xmlns="http://www.w3.org/2000/svg" viewBox="0 0 512 512" x="0" y="0" width="200" height="200"><rect width="512" height="512" rx="115" fill="#171717"/><g fill="none" stroke="#fff" stroke-width="30" stroke-linecap="round" stroke-linejoin="round"><path d="M122 200V152a30 30 0 0 1 30-30h48"/><path d="M312 122h48a30 30 0 0 1 30 30v48"/><path d="M390 312v48a30 30 0 0 1-30 30h-48"/><path d="M200 390h-48a30 30 0 0 1-30-30v-48"/></g><rect x="170" y="186" width="30" height="140" rx="9" fill="#8c2840"/><rect x="220" y="186" width="16" height="140" rx="7" fill="#5c3340"/><rect x="256" y="186" width="30" height="140" rx="9" fill="#c2183f"/><rect x="306" y="186" width="36" height="140" rx="9" fill="#8c2840"/></svg><text x="236" y="112" font-family="-apple-system,BlinkMacSystemFont,'SF Pro Display','Helvetica Neue',Arial,sans-serif" font-size="82" font-weight="600" letter-spacing="-2" fill="#171717">Auzslab</text><text x="240" y="162" font-family="-apple-system,BlinkMacSystemFont,'SF Pro Text','Helvetica Neue',Arial,sans-serif" font-size="30" font-weight="500" letter-spacing="9" fill="#6d6966">SCAN &amp; BILL</text></svg>
